<svg width="26" height="24" viewBox="0 0 26 24" fill="none" xmlns="http://www.w3.org/2000/svg">
<g clip-path="url(#clip0_39_1830)">
<path d="M20.3455 12.6856C17.2226 12.6856 14.691 15.2098 14.691 18.3237C14.691 21.4377 17.2226 23.9619 20.3455 23.9619C23.4685 23.9619 26 21.4376 26 18.3237C26 15.2098 23.4685 12.6856 20.3455 12.6856ZM5.65449 12.6861C2.53165 12.6861 0 15.2098 0 18.3237C0 21.4377 2.53165 23.9619 5.65449 23.9619C8.77754 23.9619 11.3093 21.4376 11.3093 18.3237C11.3093 15.2098 8.77754 12.6861 5.65449 12.6861ZM18.6545 5.63797C18.6545 8.7519 16.1228 11.2765 13.0001 11.2765C9.87706 11.2765 7.34551 8.7519 7.34551 5.63797C7.34551 2.52435 9.87695 0 13 0C16.1227 0 18.6543 2.52456 18.6543 5.63787" fill="#F06A6A"/>
</g>
<defs>
<clipPath id="clip0_39_1830">
<rect width="26" height="24" fill="white"/>
</clipPath>
</defs>
</svg>
