<svg width="24" height="24" viewBox="0 0 24 24" fill="none" xmlns="http://www.w3.org/2000/svg">
<g clip-path="url(#clip0_39_1794)">
<path d="M18.375 0H5.625C2.5184 0 0 2.5184 0 5.625V18.375C0 21.4816 2.5184 24 5.625 24H18.375C21.4816 24 24 21.4816 24 18.375V5.625C24 2.5184 21.4816 0 18.375 0Z" fill="#F4F2ED"/>
<path d="M7.94466 10.4963C7.94466 10.7245 7.96932 10.9095 8.01245 11.0452C8.06719 11.198 8.13318 11.3464 8.20988 11.4893C8.24073 11.5387 8.25301 11.588 8.25301 11.6312C8.25301 11.6929 8.21598 11.7546 8.13582 11.8162L7.74723 12.0753C7.69173 12.1122 7.63623 12.1308 7.58691 12.1308C7.52523 12.1308 7.46354 12.0999 7.40185 12.0444C7.31878 11.9551 7.24444 11.858 7.17985 11.7546C7.11091 11.636 7.0471 11.5146 6.9886 11.3906C6.50754 11.9581 5.9031 12.2418 5.17529 12.2418C4.65723 12.2418 4.24398 12.0938 3.94173 11.7977C3.63957 11.5016 3.48535 11.1069 3.48535 10.6135C3.48535 10.0892 3.67041 9.66366 4.04663 9.34294C4.42285 9.02222 4.92245 8.86181 5.5577 8.86181C5.76741 8.86181 5.98332 8.88038 6.21151 8.91122C6.4397 8.94206 6.67407 8.99137 6.92082 9.04688V8.59659C6.92082 8.12784 6.8221 7.80094 6.63095 7.60978C6.43351 7.41853 6.10051 7.32609 5.62557 7.32609C5.40966 7.32609 5.18766 7.35075 4.95948 7.40625C4.73129 7.46175 4.5092 7.52962 4.29329 7.61597C4.22316 7.64731 4.15107 7.67409 4.07748 7.69613C4.03435 7.7085 4.00341 7.71469 3.97876 7.71469C3.89251 7.71469 3.8492 7.653 3.8492 7.52344V7.22119C3.8492 7.12256 3.86157 7.0485 3.89241 7.00537C3.92326 6.96225 3.97876 6.91903 4.0651 6.87581C4.28098 6.76481 4.54004 6.67231 4.84229 6.59831C5.14445 6.51806 5.46516 6.48113 5.80445 6.48113C6.53841 6.48113 7.07495 6.64762 7.42041 6.98062C7.7596 7.31372 7.93229 7.8195 7.93229 8.49797V10.4963H7.94466ZM5.4406 11.4338C5.64404 11.4338 5.85376 11.3968 6.07585 11.3228C6.29785 11.2488 6.49519 11.113 6.66179 10.9281C6.76041 10.8109 6.83448 10.6813 6.87141 10.5333C6.90835 10.3853 6.9331 10.2064 6.9331 9.99675V9.73762C6.74608 9.69212 6.55666 9.65713 6.36573 9.63281C6.1734 9.60849 5.97974 9.59612 5.78588 9.59578C5.37263 9.59578 5.07048 9.67603 4.86695 9.84253C4.66341 10.009 4.5647 10.2434 4.5647 10.5518C4.5647 10.8417 4.63876 11.0575 4.79288 11.2056C4.94101 11.3598 5.15691 11.4338 5.4406 11.4338ZM10.3931 12.0999C10.2821 12.0999 10.2081 12.0814 10.1588 12.0383C10.1094 12.0012 10.0662 11.9149 10.0293 11.7977L8.57991 7.03003C8.54279 6.90666 8.52432 6.8265 8.52432 6.78328C8.52432 6.68466 8.57363 6.62906 8.67235 6.62906H9.27676C9.39395 6.62906 9.4742 6.64762 9.51732 6.69075C9.56663 6.72778 9.60366 6.81412 9.6407 6.93131L10.6768 11.0144L11.6391 6.93131C11.6699 6.80794 11.7069 6.72787 11.7563 6.69075C11.8056 6.65381 11.8919 6.62916 12.0029 6.62916H12.4963C12.6135 6.62916 12.6938 6.64762 12.7431 6.69075C12.7924 6.72778 12.8356 6.81412 12.8603 6.93131L13.8348 11.0637L14.9018 6.93131C14.9388 6.80794 14.982 6.72787 15.0251 6.69075C15.0744 6.65381 15.1547 6.62916 15.2657 6.62916H15.8393C15.938 6.62916 15.9935 6.67847 15.9935 6.78328C15.9935 6.81422 15.9873 6.84497 15.9811 6.882C15.975 6.91903 15.9626 6.96825 15.938 7.03622L14.4516 11.8039C14.4145 11.9272 14.3713 12.0074 14.322 12.0444C14.2727 12.0814 14.1924 12.1061 14.0876 12.1061H13.5572C13.44 12.1061 13.3599 12.0876 13.3105 12.0444C13.2611 12.0012 13.218 11.9211 13.1934 11.7977L12.2373 7.8195L11.2875 11.7915C11.2567 11.9149 11.2196 11.995 11.1703 12.0383C11.1209 12.0814 11.0346 12.0999 10.9236 12.0999H10.3931ZM18.3188 12.2664C17.998 12.2664 17.6773 12.2294 17.3689 12.1554C17.0605 12.0814 16.82 12.0012 16.6596 11.9087C16.5609 11.8532 16.4931 11.7915 16.4684 11.736C16.4444 11.6816 16.4318 11.6228 16.4314 11.5633V11.2488C16.4314 11.1192 16.4807 11.0575 16.5732 11.0575C16.6103 11.0575 16.6473 11.0637 16.6842 11.0761C16.7213 11.0884 16.7768 11.113 16.8384 11.1378C17.0563 11.2336 17.2837 11.3059 17.5169 11.3536C17.7585 11.4026 18.0044 11.4275 18.2509 11.4277C18.6395 11.4277 18.9416 11.3598 19.1514 11.2241C19.3611 11.0884 19.4721 10.891 19.4721 10.6382C19.4721 10.4655 19.4166 10.3236 19.3056 10.2064C19.1946 10.0892 18.9849 9.98437 18.6826 9.88566L17.7883 9.60816C17.338 9.46631 17.0049 9.25659 16.8014 8.97909C16.5979 8.70769 16.4931 8.40534 16.4931 8.08472C16.4931 7.82572 16.5486 7.5975 16.6596 7.40006C16.7706 7.20272 16.9186 7.03003 17.1037 6.89438C17.2887 6.75244 17.4984 6.64762 17.7451 6.57356C17.9919 6.4995 18.2509 6.46875 18.5223 6.46875C18.6579 6.46875 18.7998 6.47494 18.9355 6.49341C19.0774 6.51188 19.2069 6.53653 19.3364 6.56128C19.4598 6.59212 19.577 6.62297 19.688 6.66C19.799 6.69694 19.8853 6.73394 19.947 6.771C20.0334 6.82031 20.095 6.86962 20.1321 6.92512C20.1691 6.9745 20.1876 7.04238 20.1876 7.12875V7.41863C20.1876 7.54809 20.1383 7.61597 20.0457 7.61597C19.9963 7.61597 19.9162 7.59131 19.8114 7.54191C19.4598 7.38159 19.065 7.30144 18.6271 7.30144C18.2755 7.30144 17.998 7.35694 17.8068 7.47412C17.6155 7.59131 17.5169 7.77019 17.5169 8.02303C17.5169 8.19572 17.5786 8.34375 17.702 8.46094C17.8254 8.57812 18.0535 8.69531 18.3804 8.80012L19.2563 9.07763C19.7003 9.21956 20.0211 9.41691 20.2122 9.66984C20.4034 9.92278 20.4959 10.2126 20.4959 10.5333C20.4959 10.7985 20.4404 11.0391 20.3356 11.2488C20.2246 11.4585 20.0766 11.6435 19.8853 11.7915C19.6942 11.9457 19.4659 12.0567 19.2008 12.137C18.9232 12.2233 18.6333 12.2664 18.3188 12.2664Z" fill="#252F3E"/>
<path fill-rule="evenodd" clip-rule="evenodd" d="M19.4848 15.2639C17.4555 16.7627 14.5074 17.5583 11.9724 17.5583C8.41983 17.5583 5.21864 16.2445 2.80092 14.0612C2.60967 13.8885 2.78245 13.6541 3.01064 13.7898C5.6258 15.307 8.85155 16.2261 12.1883 16.2261C14.4395 16.2261 16.9128 15.7573 19.1887 14.7952C19.5279 14.6409 19.8178 15.0172 19.4848 15.2639Z" fill="#FF9900"/>
<path fill-rule="evenodd" clip-rule="evenodd" d="M20.33 14.3018C20.071 13.9687 18.6154 14.1414 17.9554 14.2216C17.7581 14.2463 17.7272 14.0735 17.9061 13.9441C19.0656 13.1299 20.9715 13.3643 21.1935 13.6356C21.4155 13.9132 21.1319 15.8191 20.0463 16.7319C19.8797 16.8737 19.7194 16.7997 19.7934 16.6147C20.0401 16.0041 20.589 14.6286 20.33 14.3018Z" fill="#FF9900"/>
</g>
<defs>
<clipPath id="clip0_39_1794">
<rect width="24" height="24" fill="white"/>
</clipPath>
</defs>
</svg>
