<svg width="24" height="24" viewBox="0 0 24 24" fill="none" xmlns="http://www.w3.org/2000/svg">
<g clip-path="url(#clip0_39_1800)">
<path d="M8.05268 0.837991H15.0635L7.78576 22.4013C7.71102 22.6229 7.56862 22.8155 7.37861 22.9519C7.18861 23.0884 6.96059 23.1617 6.72668 23.1617H1.27068C1.09348 23.1617 0.918829 23.1195 0.761159 23.0386C0.603489 22.9578 0.46733 22.8405 0.363935 22.6966C0.260499 22.5527 0.192851 22.3863 0.166599 22.211C0.140347 22.0357 0.156248 21.8568 0.212983 21.6889L6.9936 1.59827C7.06842 1.37666 7.21084 1.18408 7.40082 1.04764C7.5908 0.911197 7.81878 0.837755 8.05268 0.837646V0.837991Z" fill="url(#paint0_linear_39_1800)"/>
<path d="M18.2402 15.3013H7.12273C7.01935 15.3011 6.91831 15.332 6.83279 15.3901C6.74726 15.4482 6.68123 15.5307 6.6433 15.6269C6.60536 15.723 6.59729 15.8284 6.62014 15.9292C6.64298 16.0301 6.69568 16.1217 6.77136 16.1921L13.9151 22.86C14.1232 23.0538 14.397 23.1617 14.6814 23.1618H20.9765L18.2402 15.3013Z" fill="#0078D4"/>
<path d="M8.05191 0.838145C7.81542 0.837148 7.58482 0.911843 7.39382 1.0513C7.20283 1.19077 7.06147 1.38768 6.99042 1.61324L0.220653 21.6708C0.160259 21.8393 0.141322 22.0198 0.165444 22.1972C0.189566 22.3746 0.256038 22.5435 0.359239 22.6898C0.46244 22.836 0.599337 22.9553 0.758357 23.0374C0.917377 23.1196 1.09384 23.1623 1.27284 23.1619H6.86979C7.07825 23.1246 7.27309 23.0328 7.4344 22.8956C7.59571 22.7584 7.7177 22.5808 7.78791 22.3811L9.13787 18.4024L13.9602 22.9001C14.1623 23.0672 14.4157 23.1597 14.678 23.1619H20.9497L18.199 15.3013L10.1804 15.3032L15.0881 0.838145H8.05191Z" fill="url(#paint1_linear_39_1800)"/>
<path d="M17.0068 1.59738C16.932 1.37611 16.7898 1.18384 16.6 1.04765C16.4103 0.91145 16.1826 0.838176 15.9491 0.838135H8.13574C8.36927 0.838212 8.5969 0.911503 8.7866 1.0477C8.9763 1.18389 9.11853 1.37613 9.19327 1.59738L15.9741 21.6889C16.0308 21.8568 16.0468 22.0358 16.0206 22.2111C15.9944 22.3864 15.9268 22.553 15.8235 22.697C15.7201 22.841 15.5839 22.9583 15.4262 23.0392C15.2685 23.1201 15.0938 23.1622 14.9165 23.1622H22.7302C22.9074 23.1621 23.082 23.1198 23.2396 23.0388C23.3972 22.9579 23.5333 22.8406 23.6366 22.6966C23.7399 22.5527 23.8075 22.3862 23.8338 22.211C23.86 22.0357 23.8442 21.8568 23.7876 21.6889L17.0068 1.59738Z" fill="url(#paint2_linear_39_1800)"/>
</g>
<defs>
<linearGradient id="paint0_linear_39_1800" x1="10.608" y1="2.49226" x2="3.32715" y2="24.0014" gradientUnits="userSpaceOnUse">
<stop stop-color="#114A8B"/>
<stop offset="1" stop-color="#0669BC"/>
</linearGradient>
<linearGradient id="paint1_linear_39_1800" x1="12.8815" y1="12.5163" x2="11.1974" y2="13.0856" gradientUnits="userSpaceOnUse">
<stop stop-opacity="0.3"/>
<stop offset="0.071" stop-opacity="0.2"/>
<stop offset="0.321" stop-opacity="0.1"/>
<stop offset="0.623" stop-opacity="0.05"/>
<stop offset="1" stop-opacity="0"/>
</linearGradient>
<linearGradient id="paint2_linear_39_1800" x1="11.9556" y1="1.86499" x2="19.9478" y2="23.1575" gradientUnits="userSpaceOnUse">
<stop stop-color="#3CCBF4"/>
<stop offset="1" stop-color="#2892DF"/>
</linearGradient>
<clipPath id="clip0_39_1800">
<rect width="24" height="24" fill="white"/>
</clipPath>
</defs>
</svg>
