<svg width="24" height="24" viewBox="0 0 24 24" fill="none" xmlns="http://www.w3.org/2000/svg">
<g clip-path="url(#clip0_39_1811)">
<path d="M18.375 0H5.625C2.5184 0 0 2.5184 0 5.625V18.375C0 21.4816 2.5184 24 5.625 24H18.375C21.4816 24 24 21.4816 24 18.375V5.625C24 2.5184 21.4816 0 18.375 0Z" fill="#F4F2ED"/>
<mask id="mask0_39_1811" style="mask-type:luminance" maskUnits="userSpaceOnUse" x="2" y="2" width="20" height="20">
<path d="M2.625 2.625H21.375V21.375H2.625V2.625Z" fill="white"/>
</mask>
<g mask="url(#mask0_39_1811)">
<path d="M7.40625 16.1015H19.8146V12.6679L17.4574 11.3162L17.0508 11.1404L7.40625 11.2066V16.1015Z" fill="white"/>
<path d="M15.5227 15.6455C15.6381 15.2501 15.5942 14.8874 15.402 14.6178C15.2262 14.3705 14.9291 14.2276 14.5723 14.2112L7.8076 14.1233C7.76363 14.1233 7.72557 14.101 7.70335 14.0682C7.68113 14.0354 7.67579 13.9921 7.68694 13.9475C7.70916 13.8813 7.77479 13.8321 7.84632 13.8268L14.6713 13.7389C15.4799 13.7002 16.3588 13.0463 16.6658 12.2448L17.056 11.2282C17.0733 11.1865 17.0773 11.1405 17.0678 11.0963C16.6283 9.10713 14.8529 7.62354 12.7318 7.62354C10.7748 7.62354 9.11663 8.88738 8.52244 10.6411C8.1196 10.3421 7.62025 10.2031 7.12088 10.2509C6.18104 10.3446 5.42166 11.097 5.33494 12.0368C5.31222 12.2705 5.32886 12.5064 5.38416 12.7346C4.64479 12.7546 3.9425 13.0627 3.42706 13.5932C2.91161 14.1236 2.6238 14.8345 2.625 15.5741C2.625 15.7112 2.63672 15.8494 2.65257 15.986C2.66429 16.0522 2.71875 16.1014 2.78438 16.1014H15.2695C15.3055 16.1008 15.3403 16.0887 15.3689 16.067C15.3975 16.0453 15.4186 16.0151 15.4289 15.9807L15.5227 15.6455Z" fill="#F38020"/>
<path d="M17.6767 11.2986L17.4892 11.3044C17.4452 11.3044 17.4072 11.3372 17.3895 11.3806L17.1259 12.2981C17.0105 12.6937 17.0544 13.0564 17.2466 13.3259C17.4223 13.5731 17.7194 13.7161 18.0762 13.7325L19.516 13.8205C19.5598 13.8205 19.598 13.8427 19.6202 13.8755C19.6424 13.9083 19.6478 13.9575 19.6366 13.9962C19.6144 14.0624 19.5488 14.1116 19.4772 14.1169L17.9772 14.2048C17.164 14.2435 16.2897 14.8974 15.9827 15.6989L15.8726 15.9791C15.8503 16.0341 15.889 16.0892 15.9488 16.0892H21.1033C21.1331 16.0896 21.1622 16.0801 21.186 16.0621C21.2099 16.0442 21.2271 16.0189 21.2351 15.9901C21.3265 15.6651 21.3736 15.3293 21.3751 14.9917C21.3723 14.0122 20.9816 13.0737 20.2884 12.3817C19.5953 11.6896 18.6562 11.3004 17.6767 11.2991" fill="#FAAE40"/>
</g>
</g>
<defs>
<clipPath id="clip0_39_1811">
<rect width="24" height="24" fill="white"/>
</clipPath>
</defs>
</svg>
