<svg width="24" height="24" viewBox="0 0 24 24" fill="none" xmlns="http://www.w3.org/2000/svg">
<g clip-path="url(#clip0_39_1845)">
<path d="M23.3915 9.63401L23.3584 9.54926L20.1506 1.17776C20.0853 1.01365 19.9697 0.874439 19.8204 0.780071C19.6711 0.687293 19.4968 0.642595 19.3213 0.652018C19.1457 0.66144 18.9772 0.724528 18.8387 0.832759C18.7018 0.944243 18.6025 1.09503 18.554 1.26476L16.3882 7.89139H7.61792L5.45192 1.26476C5.40484 1.0941 5.30526 0.942574 5.1673 0.831634C5.02873 0.723403 4.86028 0.660315 4.68471 0.650893C4.50913 0.64147 4.3349 0.686168 4.18555 0.778947C4.03659 0.873701 3.92111 1.01279 3.85536 1.17663L0.641609 9.54438L0.609734 9.62913C-0.338828 12.1077 0.466672 14.9151 2.58542 16.5134L2.59648 16.522L2.62592 16.5428L7.51236 20.2021L9.9298 22.0317L11.4024 23.1436C11.5747 23.2744 11.785 23.3453 12.0013 23.3453C12.2176 23.3453 12.4279 23.2744 12.6002 23.1436L14.0728 22.0317L16.4902 20.2021L21.4061 16.5207L21.4183 16.5109C23.532 14.9123 24.3362 12.1099 23.3915 9.63401Z" fill="#E24329"/>
<path d="M23.3916 9.63407L23.3584 9.54932C21.7954 9.87021 20.3225 10.5323 19.0449 11.4883L12 16.8153C14.3991 18.6303 16.4876 20.2072 16.4876 20.2072L21.4035 16.5258L21.4157 16.5161C23.5328 14.9173 24.3381 12.1121 23.3916 9.63407Z" fill="#FC6D26"/>
<path d="M7.5127 20.2071L9.93013 22.0367L11.4028 23.1486C11.575 23.2794 11.7853 23.3502 12.0016 23.3502C12.2179 23.3502 12.4283 23.2794 12.6005 23.1486L14.0731 22.0367L16.4906 20.2071C16.4906 20.2071 14.3996 18.6253 12.0005 16.8152C10.5036 17.9446 9.00771 19.0752 7.5127 20.2071Z" fill="#FCA326"/>
<path d="M4.95373 11.4882C3.67733 10.5302 2.20476 9.86638 0.641609 9.54443L0.609734 9.62918C-0.338828 12.1077 0.466672 14.9152 2.58542 16.5134L2.59648 16.5221L2.62592 16.5429L7.51236 20.2021L12 16.8102L4.95373 11.4882Z" fill="#FC6D26"/>
</g>
<defs>
<clipPath id="clip0_39_1845">
<rect width="24" height="24" fill="white"/>
</clipPath>
</defs>
</svg>
