<svg width="24" height="24" viewBox="0 0 24 24" fill="none" xmlns="http://www.w3.org/2000/svg">
<path d="M15.1121 7.55619H15.1871L15.1496 7.51869L17.7746 4.89369V4.83744C15.5621 2.88744 12.5059 2.21244 9.67461 3.05619C6.84336 3.89994 4.66836 6.14994 3.88086 8.99994C3.91836 8.98119 3.97461 8.96244 4.03086 8.96244C5.00586 8.32494 6.16836 7.94994 7.38711 7.94994C7.79961 7.94994 8.19336 7.98744 8.58711 8.06244C8.60586 8.04369 8.62461 8.04369 8.64336 8.04369C10.3309 6.18744 13.1809 5.96244 15.1309 7.55619H15.1121Z" fill="#EA4335"/>
<path d="M20.2691 8.9626C19.8379 7.36885 18.9379 5.9251 17.6816 4.81885L15.0004 7.48135C16.1254 8.4001 16.7816 9.7876 16.7441 11.2313V11.7001C19.9129 11.7001 19.9129 16.4251 16.7441 16.4251H11.9816V20.1751H11.9629L11.9816 20.2126H16.7441C19.4816 20.2313 21.9004 18.4688 22.7066 15.8813C23.5129 13.2938 22.5191 10.4813 20.2691 8.9626Z" fill="#4285F4"/>
<path d="M7.3127 20.2313H12.2439V16.4438H7.3127C6.95645 16.4438 6.61895 16.3688 6.3002 16.2375L3.4502 18.975V19.0125C4.5752 19.8188 5.9252 20.25 7.33145 20.25L7.3127 20.2313Z" fill="#34A853"/>
<path d="M7.53772 7.8562C4.74397 7.87495 2.26897 9.59995 1.36897 12.1312C0.46897 14.6812 1.36897 17.4749 3.58147 19.125L6.50647 16.3312C4.89397 15.6374 4.51897 13.6125 5.75647 12.4312C6.99397 11.2312 9.09397 11.6062 9.82522 13.1437L12.7502 10.35C11.5127 8.7937 9.58147 7.87495 7.53772 7.8937V7.8562Z" fill="#FBBC05"/>
</svg>
