<svg width="24" height="24" viewBox="0 0 24 24" fill="none" xmlns="http://www.w3.org/2000/svg">
<g clip-path="url(#clip0_39_1860)">
<path d="M14.2972 0.046875L16.7458 0.063C16.7919 0.0988125 16.8292 0.12225 16.8688 0.139875C17.3126 0.3405 17.7937 0.484125 18.1937 0.75075C19.3532 1.52138 20.4855 2.33344 21.617 3.14512C22.143 3.52144 22.6614 3.91331 23.1463 4.3395C23.5067 4.656 23.6685 5.10506 23.6694 5.58394L23.6685 20.6535C23.6679 20.8637 23.6319 21.0799 23.5734 21.282C23.3075 22.2034 22.7178 22.8339 21.7899 23.0801C21.3005 23.2097 20.7836 23.25 20.276 23.2918C19.4842 23.3576 18.6896 23.3899 17.8963 23.4375L16.3955 23.5312L13.9925 23.6726L12.5152 23.7649L10.0888 23.9055L8.83479 23.9569C8.79447 23.9589 8.75716 24.0154 8.7191 24.0469C7.76472 24.0469 6.8111 24.0469 5.84866 24.0315C5.80254 23.9949 5.76747 23.9655 5.72641 23.9539C5.14479 23.7853 4.6571 23.4639 4.2821 22.9972C3.76272 22.3521 3.26922 21.687 2.76972 21.0264C2.15585 20.2148 1.52604 19.4151 0.945912 18.5801C0.60493 18.0923 0.422295 17.5113 0.422787 16.9161C0.421152 12.4654 0.421715 8.01469 0.424475 3.564C0.424475 3.43575 0.446975 3.30619 0.4691 3.17869C0.701975 1.80844 1.71635 1.07737 2.92272 0.941812C3.54897 0.8715 4.17954 0.84 4.80879 0.798375L6.47191 0.702375L7.18685 0.6555L9.3431 0.4695L10.5384 0.37575L12.5182 0.235125L14.1813 0.136875C14.2218 0.134063 14.2592 0.078375 14.2972 0.046875ZM4.86504 21.4095C4.96479 21.5391 5.07597 21.6621 5.16316 21.7999C5.58579 22.4612 6.1916 22.7014 6.96129 22.6502L12.1755 22.3397L18.0435 21.9851L20.9651 21.7969C21.831 21.7273 22.2491 21.2593 22.266 20.3906V20.2031L22.2725 5.97881C22.2733 5.55037 22.1253 5.25075 21.7826 5.01131L17.6531 2.10131C16.9888 1.61794 16.2836 1.39237 15.4668 1.45687L10.8423 1.79887L6.00691 2.1555L2.97185 2.39213C2.35872 2.44837 1.97866 2.82338 1.86879 3.42488C1.84207 3.57842 1.82908 3.73403 1.82997 3.88987L1.81741 16.3102C1.8131 17.124 2.0621 17.8009 2.54922 18.4234L4.86504 21.4095Z" fill="white"/>
<path d="M4.85419 21.3969L2.54925 18.4232C2.06213 17.8007 1.81313 17.124 1.81744 16.3102L1.83 3.88985C1.83 3.7346 1.84163 3.5771 1.86881 3.42485C1.97869 2.82353 2.35875 2.44853 2.97188 2.3921L6.00694 2.15547L10.8426 1.79885L15.4669 1.45685C16.2836 1.39235 16.9888 1.61791 17.6531 2.10128C19.0148 3.09222 20.4019 4.0481 21.7826 5.01128C22.1254 5.25072 22.2733 5.55035 22.2726 5.97878L22.266 20.2038V20.3913C22.2491 21.2593 21.831 21.7273 20.9651 21.7968C19.9926 21.8752 19.0178 21.9258 18.0435 21.9851L12.1755 22.3395L6.96131 22.6502C6.19163 22.7013 5.58581 22.4612 5.16319 21.7998C5.076 21.662 4.96481 21.539 4.85419 21.3969ZM6.05531 12.7734V19.0524L6.05681 20.2235C6.06694 20.7487 6.32419 21.0103 6.84919 21.0403C6.981 21.0476 7.11431 21.0431 7.24688 21.035L11.6423 20.7759L20.0357 20.2961C20.5588 20.2668 20.8005 20.0375 20.8494 19.5191C20.859 19.4259 20.856 19.3316 20.856 19.2378L20.8568 7.14841C20.8568 7.0781 20.859 7.00778 20.8547 6.93747C20.8232 6.45635 20.6166 6.26003 20.1384 6.28553L15.8126 6.53472C13.7865 6.6526 11.7603 6.77122 9.73425 6.8906L6.69544 7.07303C6.30806 7.09778 6.13294 7.26485 6.07444 7.6436C6.06059 7.74404 6.05445 7.8454 6.05606 7.94678L6.05531 12.7734ZM16.7751 2.8871C16.4081 2.68797 16.0097 2.62197 15.5994 2.64466C14.9689 2.67916 14.3383 2.7311 13.7076 2.77666L4.71713 3.42991C4.44544 3.4496 4.17225 3.46928 3.90413 3.51785C3.81413 3.53397 3.7005 3.62472 3.67275 3.70685C3.65213 3.7646 3.74306 3.88122 3.80963 3.94497C3.93281 4.06272 4.07475 4.16153 4.209 4.26785C4.52756 4.5191 4.86656 4.74822 5.15888 5.02591C5.71331 5.55241 6.3585 5.6741 7.09763 5.62066L12.9167 5.25578L19.1811 4.88003C19.2383 4.87722 19.2954 4.8596 19.4213 4.83616C19.3063 4.71672 19.2396 4.62522 19.1526 4.56072C18.8457 4.33406 18.5358 4.11142 18.2231 3.89285C17.7427 3.55435 17.26 3.21909 16.7751 2.8871Z" fill="black"/>
<path d="M6.05467 12.7499L6.05542 7.94671C6.05542 7.84546 6.05842 7.74308 6.0738 7.64352C6.1323 7.26477 6.30742 7.0979 6.6948 7.07296L9.73361 6.89052L15.812 6.53465L20.1376 6.28546C20.6159 6.25996 20.8225 6.45683 20.8539 6.9374C20.8584 7.00771 20.8561 7.07802 20.8561 7.14833L20.8554 19.2378L20.8488 19.519C20.7999 20.0375 20.5582 20.2668 20.035 20.296L11.6416 20.7758L7.24623 21.035L6.84874 21.0402C6.32355 21.0102 6.0663 20.7486 6.05617 20.2242L6.05467 19.0523V12.7499ZM14.6358 12.7623L12.223 9.08633C12.1389 8.95808 12.0562 8.91571 11.9009 8.93258L10.8725 9.00196L8.98061 9.14052C8.51561 9.18308 8.23436 9.62033 8.36317 10.0737L9.36517 10.1594V18.2768L8.68267 18.4694C8.38005 18.5586 8.25049 18.8136 8.3523 19.1395L10.66 19.007L11.569 18.9323C11.9609 18.8678 12.1719 18.6276 12.2245 18.2358L10.9627 17.948V11.8424L11.0564 11.9736L13.9567 16.5021C14.383 17.1635 14.8208 17.8173 15.2699 18.4634C15.59 18.9228 16.0617 19.0634 16.592 18.949C16.9239 18.8781 17.2424 18.7433 17.5675 18.6385C17.7369 18.5836 17.7946 18.4825 17.7939 18.2928L17.7882 9.94902C17.7882 9.46133 17.7882 9.46133 18.2707 9.36402C18.7585 9.26577 18.8808 9.07096 18.7694 8.54952L15.8538 8.72671C15.5365 8.7494 15.2964 9.01452 15.2482 9.32296C15.2245 9.47165 15.2553 9.55358 15.4332 9.5639L16.316 9.6614V15.32C15.7569 14.467 15.1968 13.6147 14.6358 12.763V12.7623ZM16.7904 2.89508C17.269 3.2256 17.7462 3.55811 18.2221 3.89258C18.5349 4.11122 18.8448 4.33393 19.1517 4.56065C19.2387 4.62515 19.3055 4.71665 19.4204 4.83608L19.1802 4.87996L12.9159 5.25571L7.0968 5.62058C6.35767 5.67402 5.71249 5.55233 5.15805 5.02583C4.86574 4.74833 4.52674 4.51902 4.20799 4.26777C4.07392 4.16146 3.93199 4.06265 3.8088 3.94471C3.74224 3.88096 3.6513 3.76471 3.67192 3.70658C3.69967 3.62465 3.81405 3.5339 3.9033 3.51777C4.17142 3.4694 4.44461 3.44952 4.7163 3.42983L13.7069 2.77658L15.5988 2.64458C16.0089 2.62208 16.4073 2.68771 16.7904 2.89508Z" fill="white"/>
<path d="M14.6462 12.7762L16.3163 15.32V9.66125L15.4337 9.56375C15.2556 9.55362 15.2249 9.47169 15.2483 9.323C15.2967 9.01456 15.537 8.74944 15.8539 8.72675L18.7697 8.54956C18.8811 9.07081 18.7589 9.26581 18.271 9.36387C17.7884 9.46062 17.7884 9.46062 17.7884 9.94906L17.7942 18.2928C17.7949 18.4826 17.7372 18.5836 17.5679 18.6386L16.5923 18.9491C16.062 19.0627 15.5903 18.9228 15.2704 18.4634C14.8215 17.8172 14.3837 17.1634 13.9572 16.5022L11.0565 11.9735C11.0361 11.9412 11.0127 11.9112 10.9628 11.8424V17.948L12.2249 18.2358C12.1722 18.6277 11.9612 18.8677 11.5694 18.9324C11.2705 18.9813 10.9637 18.9886 10.6604 19.007L8.35261 19.1396C8.2508 18.8137 8.38036 18.5587 8.68298 18.4694L9.36548 18.2769V10.1594L8.36348 10.0737C8.23467 9.62037 8.51592 9.18312 8.98092 9.14056C9.61017 9.08187 10.2422 9.04606 10.8728 9.00219C11.2155 8.97875 11.5598 8.96994 11.9012 8.93262C12.0565 8.91575 12.1394 8.95812 12.2234 9.08637L14.6462 12.7762Z" fill="black"/>
</g>
<defs>
<clipPath id="clip0_39_1860">
<rect width="24" height="24" fill="white"/>
</clipPath>
</defs>
</svg>
