<svg width="24" height="24" viewBox="0 0 24 24" fill="none" xmlns="http://www.w3.org/2000/svg">
  <path d="M10.006 3.24C10.596 2.52 11.556 2 12.756 2C14.556 2 16.056 3.12 16.656 4.68C17.196 4.32 17.856 4.08 18.576 4.08C20.376 4.08 21.876 5.2 22.476 6.76C23.016 6.4 23.676 6.16 24 6.16V8.4C24 10.4 22.356 12 20.256 12H17.436V11.28C17.436 9.28 15.996 7.68 14.076 7.68H10.716C9.756 7.68 8.916 8.08 8.316 8.72L3.996 13.04C3.396 13.68 2.556 14.08 1.596 14.08H0V12.8H1.596C2.076 12.8 2.496 12.6 2.796 12.28L7.116 7.96C8.076 7 9.336 6.52 10.716 6.52H14.076C15.396 6.52 16.476 7.44 16.716 8.68H14.076C12.156 8.68 10.716 10.28 10.716 12.28V21H8.316V12.28C8.316 10.96 8.796 9.76 9.636 8.84L10.006 8.44V3.24Z" fill="#00A1E0"/>
</svg>
