<svg width="24" height="24" viewBox="0 0 24 24" fill="none" xmlns="http://www.w3.org/2000/svg">
<g clip-path="url(#clip0_39_1834)">
<path d="M2.34375 0H21.6562C22.9547 0 24 1.04531 24 2.34375V21.6562C24 22.9547 22.9547 24 21.6562 24H2.34375C1.04531 24 0 22.9547 0 21.6562V2.34375C0 1.04531 1.04531 0 2.34375 0Z" fill="url(#paint0_linear_39_1834)"/>
<path d="M14.6851 3.12H19.7551C20.3784 3.12 20.8801 3.62175 20.8801 4.245V12.495C20.8801 13.1182 20.3784 13.62 19.7551 13.62H14.6851C14.0619 13.62 13.5601 13.1182 13.5601 12.495V4.245C13.5601 3.62175 14.0619 3.12 14.6851 3.12ZM4.24512 3.12H9.31512C9.93837 3.12 10.4401 3.62175 10.4401 4.245V18.495C10.4401 19.1182 9.93837 19.62 9.31512 19.62H4.24512C3.62187 19.62 3.12012 19.1182 3.12012 18.495V4.245C3.12012 3.62175 3.62187 3.12 4.24512 3.12Z" fill="white"/>
</g>
<defs>
<linearGradient id="paint0_linear_39_1834" x1="12" y1="0" x2="12" y2="24" gradientUnits="userSpaceOnUse">
<stop stop-color="#2684FF"/>
<stop offset="1" stop-color="#0052CC"/>
</linearGradient>
<clipPath id="clip0_39_1834">
<rect width="24" height="24" fill="white"/>
</clipPath>
</defs>
</svg>
