<svg width="24" height="24" viewBox="0 0 24 24" fill="none" xmlns="http://www.w3.org/2000/svg">
<path d="M7.34453 15.7625C7.93824 15.7625 8.41953 15.2813 8.41953 14.6875C8.41953 14.0938 7.93824 13.6125 7.34453 13.6125C6.75082 13.6125 6.26953 14.0938 6.26953 14.6875C6.26953 15.2813 6.75082 15.7625 7.34453 15.7625Z" stroke="#FF383C" stroke-width="1.5" stroke-linecap="round" stroke-linejoin="round"/>
<path d="M11.9998 7.70005C12.5935 7.70005 13.0748 7.21875 13.0748 6.62505C13.0748 6.03134 12.5935 5.55005 11.9998 5.55005C11.4061 5.55005 10.9248 6.03134 10.9248 6.62505C10.9248 7.21875 11.4061 7.70005 11.9998 7.70005Z" stroke="#FF383C" stroke-width="1.5" stroke-linecap="round" stroke-linejoin="round"/>
<path d="M12.0004 1.25L21.3104 6.625V17.375L12.0004 22.75L2.69043 17.375V6.625L12.0004 1.25Z" stroke="#FF383C" stroke-width="1.5" stroke-linecap="round" stroke-linejoin="round"/>
<path d="M2.68945 6.62598L12 12M12 12L21.3105 6.62598M12 12V22.75" stroke="#FF383C" stroke-width="1.5" stroke-linecap="round" stroke-linejoin="round"/>
<path d="M10.7589 15.5835L8.27637 14.15V9.84995L11.9999 7.69995L15.7239 9.84995V14.15L12.0004 16.3" stroke="#FF383C" stroke-width="1.5" stroke-linecap="round" stroke-linejoin="round"/>
</svg>
